<svg width="325" height="73" viewBox="0 0 325 73" fill="none" xmlns="http://www.w3.org/2000/svg">
<path d="M14.4 13.2V41.7H21.6C22.2 41.7 22.5667 41.6 22.7 41.4C22.9 41.1333 23 40.7333 23 40.2V14.6C23 13.6667 22.5667 13.2 21.7 13.2H14.4ZM28.5 0.499998C31.3667 0.499998 33.5 1.3 34.9 2.9C36.3667 4.5 37.1 6.63333 37.1 9.3V44C37.1 45.4 36.9333 46.7 36.6 47.9C36.3333 49.0333 35.8 50.0333 35 50.9C34.2 51.7667 33.1333 52.4667 31.8 53C30.4667 53.4667 28.8 53.7 26.8 53.7H14.4V73H1.19209e-07V0.499998H28.5ZM57.2734 13.2V38.2H64.3734C65.3068 38.2 65.7734 37.7 65.7734 36.7V14.7C65.7734 13.7 65.3068 13.2 64.3734 13.2H57.2734ZM80.0734 43.5C80.0734 45.1 79.5068 46.5667 78.3734 47.9C77.3068 49.2333 75.7068 49.9 73.5734 49.9L81.1734 73H66.1734L59.1734 49.9H57.2734V73H42.7734V0.499998H70.2734C73.6734 0.499998 76.1401 1.36666 77.6734 3.09999C79.2734 4.76666 80.0734 7.03333 80.0734 9.9V43.5ZM86.2305 0.499998H100.73V73H86.2305V0.499998ZM120.838 38.8V73H106.738V0.499998H122.038L129.938 31.1L137.838 0.499998H153.238V73H139.138V38.8L129.938 67.8L120.838 38.8ZM159.277 0.499998H187.477L189.977 14H174.177V31.2H186.177V43.7H174.177V59.5H189.377L186.877 73H159.277V0.499998ZM218.82 73C214.62 73 211.686 72.1333 210.02 70.4C208.353 68.6667 207.52 65.8 207.52 61.8V9.4C207.52 6.53333 208.32 4.33333 209.92 2.8C211.586 1.26666 213.62 0.499998 216.02 0.499998H235.12L237.62 14H223.72C222.853 14 222.42 14.4667 222.42 15.4V58.1C222.42 59.0333 222.853 59.5 223.72 59.5H237.62L235.02 73H218.82ZM256.478 64L255.178 73H240.578L253.678 0.499998H269.178L282.278 73H267.678L266.378 64H256.478ZM258.078 52.5H264.778L261.478 26.8L258.078 52.5ZM300.73 13.2V38.2H307.83C308.764 38.2 309.23 37.7 309.23 36.7V14.7C309.23 13.7 308.764 13.2 307.83 13.2H300.73ZM323.53 43.5C323.53 45.1 322.964 46.5667 321.83 47.9C320.764 49.2333 319.164 49.9 317.03 49.9L324.63 73H309.63L302.63 49.9H300.73V73H286.23V0.499998H313.73C317.13 0.499998 319.597 1.36666 321.13 3.09999C322.73 4.76666 323.53 7.03333 323.53 9.9V43.5Z" fill="white"/>
</svg>
