<svg width="183" height="41" viewBox="0 0 183 41" fill="none" xmlns="http://www.w3.org/2000/svg">
<path d="M8.744 7.512V23.472H12.776C13.112 23.472 13.3173 23.416 13.392 23.304C13.504 23.1547 13.56 22.9307 13.56 22.632V8.296C13.56 7.77333 13.3173 7.512 12.832 7.512H8.744ZM16.64 0.399999C18.2453 0.399999 19.44 0.847998 20.224 1.744C21.0453 2.64 21.456 3.83466 21.456 5.328V24.76C21.456 25.544 21.3627 26.272 21.176 26.944C21.0267 27.5787 20.728 28.1387 20.28 28.624C19.832 29.1093 19.2347 29.5013 18.488 29.8C17.7413 30.0613 16.808 30.192 15.688 30.192H8.744V41H0.68V0.399999H16.64ZM32.7531 7.512V21.512H36.7291C37.2518 21.512 37.5131 21.232 37.5131 20.672V8.352C37.5131 7.792 37.2518 7.512 36.7291 7.512H32.7531ZM45.5211 24.48C45.5211 25.376 45.2038 26.1973 44.5691 26.944C43.9718 27.6907 43.0758 28.064 41.8811 28.064L46.1371 41H37.7371L33.8171 28.064H32.7531V41H24.6331V0.399999H40.0331C41.9371 0.399999 43.3185 0.885331 44.1771 1.856C45.0731 2.78933 45.5211 4.05866 45.5211 5.664V24.48ZM48.9691 0.399999H57.0891V41H48.9691V0.399999ZM68.3494 21.848V41H60.4534V0.399999H69.0214L73.4454 17.536L77.8694 0.399999H86.4934V41H78.5974V21.848L73.4454 38.088L68.3494 21.848ZM89.8753 0.399999H105.667L107.067 7.96H98.2193V17.592H104.939V24.592H98.2193V33.44H106.731L105.331 41H89.8753V0.399999ZM123.219 41C120.867 41 119.224 40.5147 118.291 39.544C117.358 38.5733 116.891 36.968 116.891 34.728V5.384C116.891 3.77867 117.339 2.54667 118.235 1.688C119.168 0.829332 120.307 0.399999 121.651 0.399999H132.347L133.747 7.96H125.963C125.478 7.96 125.235 8.22133 125.235 8.744V32.656C125.235 33.1787 125.478 33.44 125.963 33.44H133.747L132.291 41H123.219ZM144.308 35.96L143.58 41H135.404L142.74 0.399999H151.42L158.756 41H150.58L149.852 35.96H144.308ZM145.204 29.52H148.956L147.108 15.128L145.204 29.52ZM169.089 7.512V21.512H173.065C173.588 21.512 173.849 21.232 173.849 20.672V8.352C173.849 7.792 173.588 7.512 173.065 7.512H169.089ZM181.857 24.48C181.857 25.376 181.54 26.1973 180.905 26.944C180.308 27.6907 179.412 28.064 178.217 28.064L182.473 41H174.073L170.153 28.064H169.089V41H160.969V0.399999H176.369C178.273 0.399999 179.654 0.885331 180.513 1.856C181.409 2.78933 181.857 4.05866 181.857 5.664V24.48Z" fill="white"/>
</svg>
