<svg width="32" height="32" viewBox="0 0 32 32" fill="none" xmlns="http://www.w3.org/2000/svg">
<path d="M16.0005 4.36353C12.8404 4.36353 12.4438 4.37734 11.2026 4.43383C9.96384 4.49056 9.11829 4.68668 8.37843 4.97443C7.61312 5.27165 6.96393 5.66922 6.31716 6.31625C5.66991 6.96304 5.27235 7.61225 4.97417 8.37734C4.6857 9.11746 4.48934 9.96328 4.43358 11.2016C4.37807 12.4428 4.36353 12.8396 4.36353 15.9999C4.36353 19.1601 4.37759 19.5555 4.43383 20.7967C4.49079 22.0355 4.68691 22.8811 4.97442 23.621C5.27186 24.3863 5.66943 25.0355 6.31644 25.6823C6.96296 26.3296 7.61215 26.7281 8.37698 27.0253C9.11732 27.3131 9.96311 27.5092 11.2016 27.5659C12.4428 27.6224 12.8391 27.6363 15.9991 27.6363C19.1594 27.6363 19.5548 27.6224 20.796 27.5659C22.0347 27.5092 22.8813 27.3131 23.6216 27.0253C24.3867 26.7281 25.0349 26.3296 25.6814 25.6823C26.3287 25.0355 26.7262 24.3863 27.0244 23.6212C27.3105 22.8811 27.5068 22.0353 27.565 20.797C27.6208 19.5558 27.6353 19.1601 27.6353 15.9999C27.6353 12.8396 27.6208 12.443 27.565 11.2018C27.5068 9.96304 27.3105 9.11746 27.0244 8.37759C26.7262 7.61225 26.3287 6.96304 25.6814 6.31625C25.0342 5.66898 24.3869 5.2714 23.6209 4.97443C22.8791 4.68668 22.0331 4.49056 20.7943 4.43383C19.5531 4.37734 19.158 4.36353 15.9969 4.36353H16.0005ZM14.9567 6.46049C15.2665 6.46001 15.6122 6.46049 16.0005 6.46049C19.1073 6.46049 19.4756 6.47165 20.7024 6.5274C21.8369 6.57928 22.4527 6.76886 22.8628 6.92813C23.4059 7.13904 23.793 7.39116 24.2 7.79843C24.6073 8.20571 24.8594 8.59359 25.0708 9.13662C25.23 9.54631 25.4199 10.1621 25.4715 11.2966C25.5272 12.5233 25.5394 12.8918 25.5394 15.9972C25.5394 19.1027 25.5272 19.4712 25.4715 20.6978C25.4196 21.8324 25.23 22.4481 25.0708 22.8578C24.8599 23.4009 24.6073 23.7875 24.2 24.1946C23.7928 24.6018 23.4061 24.8539 22.8628 25.0649C22.4532 25.2249 21.8369 25.4139 20.7024 25.4658C19.4758 25.5216 19.1073 25.5337 16.0005 25.5337C12.8934 25.5337 12.5252 25.5216 11.2986 25.4658C10.1641 25.4135 9.54834 25.2239 9.13793 25.0646C8.59491 24.8537 8.20705 24.6016 7.79978 24.1943C7.39252 23.787 7.14041 23.4001 6.92902 22.8569C6.76976 22.4472 6.57994 21.8314 6.52831 20.6969C6.47255 19.4702 6.4614 19.1017 6.4614 15.9943C6.4614 12.8869 6.47255 12.5204 6.52831 11.2937C6.58019 10.1592 6.76976 9.5434 6.92902 9.13322C7.13993 8.59019 7.39252 8.20231 7.79978 7.79504C8.20705 7.38777 8.59491 7.13565 9.13793 6.92425C9.5481 6.76425 10.1641 6.57516 11.2986 6.52304C12.372 6.47456 12.788 6.46001 14.9567 6.45759V6.46049ZM22.2117 8.39262C21.4408 8.39262 20.8154 9.01734 20.8154 9.78849C20.8154 10.5594 21.4408 11.1849 22.2117 11.1849C22.9826 11.1849 23.608 10.5594 23.608 9.78849C23.608 9.01759 22.9826 8.39213 22.2117 8.39213V8.39262ZM16.0005 10.0241C12.7005 10.0241 10.0249 12.6998 10.0249 15.9999C10.0249 19.3 12.7005 21.9744 16.0005 21.9744C19.3005 21.9744 21.9751 19.3 21.9751 15.9999C21.9751 12.6998 19.3003 10.0241 16.0003 10.0241H16.0005ZM16.0005 12.1211C18.1425 12.1211 19.8792 13.8576 19.8792 15.9999C19.8792 18.1419 18.1425 19.8787 16.0005 19.8787C13.8583 19.8787 12.1218 18.1419 12.1218 15.9999C12.1218 13.8576 13.8583 12.1211 16.0005 12.1211Z" fill="white"/>
</svg>
