<svg width="32" height="32" viewBox="0 0 32 32" fill="none" xmlns="http://www.w3.org/2000/svg">
<path fill-rule="evenodd" clip-rule="evenodd" d="M6.27557 4.66675C5.38701 4.66675 4.66669 5.38707 4.66669 6.27563V25.7245C4.66669 26.613 5.38701 27.3334 6.27557 27.3334H25.7245C26.613 27.3334 27.3334 26.613 27.3334 25.7245V6.27563C27.3334 5.38707 26.613 4.66675 25.7245 4.66675H6.27557ZM9.75431 11.7059C10.8403 11.7059 11.7206 10.8255 11.7206 9.73956C11.7206 8.65359 10.8403 7.77323 9.75431 7.77323C8.66834 7.77323 7.78798 8.65359 7.78798 9.73956C7.78798 10.8255 8.66834 11.7059 9.75431 11.7059ZM13.5215 13.1591H16.7803V14.652C16.7803 14.652 17.6646 12.8833 20.0708 12.8833C22.2172 12.8833 23.9952 13.9406 23.9952 17.1636V23.9598H20.6181V17.9871C20.6181 16.0859 19.6031 15.8768 18.8296 15.8768C17.2245 15.8768 16.9497 17.2613 16.9497 18.2351V23.9598H13.5215V13.1591ZM11.4684 13.1591H8.04021V23.9598H11.4684V13.1591Z" fill="white"/>
</svg>
